<svg width="54" height="54" viewBox="0 0 54 54" fill="none" xmlns="http://www.w3.org/2000/svg">
<path d="M6.75 29.25C6.75 34.6206 8.88348 39.7713 12.6811 43.5689C16.4787 47.3665 21.6294 49.5 27 49.5C27 38.25 17.9325 29.25 6.75 29.25ZM27 12.375C28.4918 12.375 29.9226 12.9676 30.9775 14.0225C32.0324 15.0774 32.625 16.5082 32.625 18C32.625 19.4918 32.0324 20.9226 30.9775 21.9775C29.9226 23.0324 28.4918 23.625 27 23.625C25.5082 23.625 24.0774 23.0324 23.0225 21.9775C21.9676 20.9226 21.375 19.4918 21.375 18C21.375 16.5082 21.9676 15.0774 23.0225 14.0225C24.0774 12.9676 25.5082 12.375 27 12.375ZM12.6 23.0625C12.6 24.5543 13.1926 25.9851 14.2475 27.04C15.3024 28.0949 16.7332 28.6875 18.225 28.6875C19.4175 28.6875 20.52 28.305 21.375 27.6975V28.125C21.375 29.6168 21.9676 31.0476 23.0225 32.1025C24.0774 33.1574 25.5082 33.75 27 33.75C28.4918 33.75 29.9226 33.1574 30.9775 32.1025C32.0324 31.0476 32.625 29.6168 32.625 28.125V27.6975C33.48 28.305 34.5825 28.6875 35.775 28.6875C37.2668 28.6875 38.6976 28.0949 39.7525 27.04C40.8074 25.9851 41.4 24.5543 41.4 23.0625C41.4 20.8125 40.0725 18.9 38.1825 18C40.0725 17.1 41.4 15.165 41.4 12.9375C41.4 11.4457 40.8074 10.0149 39.7525 8.96002C38.6976 7.90513 37.2668 7.3125 35.775 7.3125C34.5825 7.3125 33.48 7.6725 32.625 8.3025V7.875C32.625 6.38316 32.0324 4.95242 30.9775 3.89752C29.9226 2.84263 28.4918 2.25 27 2.25C25.5082 2.25 24.0774 2.84263 23.0225 3.89752C21.9676 4.95242 21.375 6.38316 21.375 7.875V8.3025C20.52 7.6725 19.4175 7.3125 18.225 7.3125C16.7332 7.3125 15.3024 7.90513 14.2475 8.96002C13.1926 10.0149 12.6 11.4457 12.6 12.9375C12.6 15.165 13.9275 17.1 15.8175 18C13.9275 18.9 12.6 20.8125 12.6 23.0625ZM27 49.5C32.3706 49.5 37.5213 47.3665 41.3189 43.5689C45.1165 39.7713 47.25 34.6206 47.25 29.25C36 29.25 27 38.25 27 49.5Z" fill="black"/>
</svg>
