<?xml version="1.0" encoding="utf-8"?>
<!-- Generator: Adobe Illustrator 25.3.1, SVG Export Plug-In . SVG Version: 6.00 Build 0)  -->
<svg version="1.1" id="Layer_1" xmlns="http://www.w3.org/2000/svg" xmlns:xlink="http://www.w3.org/1999/xlink" x="0px" y="0px"
	 viewBox="0 0 1080 1080" style="enable-background:new 0 0 1080 1080;" xml:space="preserve">
<style type="text/css">
	.st0{fill:none;}
	.st1{fill:url(#SVGID_1_);}
	.st2{display:none;fill:none;stroke:#000000;stroke-width:0.9973;stroke-miterlimit:10;}
	.st3{display:none;}
	.st4{display:inline;}
	.st5{fill:#FFFFFF;}
	.st6{display:inline;fill:none;stroke:#000000;stroke-width:0.9973;stroke-miterlimit:10;}
	.st7{display:inline;fill:url(#SVGID_2_);}
	.st8{fill:url(#SVGID_3_);}
	.st9{fill:url(#SVGID_4_);}
	.st10{display:inline;fill:url(#SVGID_5_);}
	.st11{display:inline;fill:url(#SVGID_6_);}
	.st12{fill:url(#SVGID_7_);}
	.st13{fill:url(#SVGID_8_);}
	.st14{fill:url(#SVGID_9_);}
	.st15{fill:url(#SVGID_10_);}
	.st16{fill:url(#SVGID_11_);}
</style>
<pattern  x="-2956.8" width="408.4" height="408.4" patternUnits="userSpaceOnUse" id="New_Pattern_Swatch_2" viewBox="0 -408.4 408.4 408.4" style="overflow:visible;">
	<g>
		<rect y="-408.4" class="st0" width="408.4" height="408.4"/>
		
			<linearGradient id="SVGID_1_" gradientUnits="userSpaceOnUse" x1="7089.5146" y1="-6833.1777" x2="6957.8979" y2="-7256.0308" gradientTransform="matrix(1 0 0 -1 -6819.5732 -7248.5581)">
			<stop  offset="5.618000e-03" style="stop-color:#EBC07D"/>
			<stop  offset="0.1854" style="stop-color:#DFB77C"/>
			<stop  offset="0.4383" style="stop-color:#EEDCC4"/>
			<stop  offset="0.6467" style="stop-color:#C0832B"/>
			<stop  offset="0.8378" style="stop-color:#E0B06E"/>
			<stop  offset="0.8824" style="stop-color:#EABE80"/>
		</linearGradient>
		<rect y="-408.4" class="st1" width="408.4" height="408.4"/>
	</g>
</pattern>
<text transform="matrix(1.1836 0 0 1 -1679.0399 761.429)" class="st3" style="font-family:'Elephant-Regular'; font-size:372.6798px;">S</text>
<text transform="matrix(1 0 0 1 -3382.731 621.9437)" style="display:none;stroke:#000000;stroke-width:28;stroke-miterlimit:10; font-family:'BodoniMT'; font-size:411.5344px;">S</text>
<path class="st2" d="M-2475.8,787.5c-1.6-0.5-3.2-1.1-4.8-1.7C-2478.9,786.3-2477.3,786.9-2475.8,787.5z"/>
<g class="st3">
	<path class="st4" d="M-3560.4-120.2c-64.8,8.7-118,25-112.3,78.8v252.7v159.8h-55.1V-40.3c-2.5-48.9-41.4-75.2-114.5-79.9H-3560.4z
		"/>
	<g class="st4">
		<g>
			<path d="M-3865.5,446.2c-0.2-1.2-0.2-2.5-0.2-3.7V205.6l23.5,52.6l18.9,42.3c0.9,1.7,1.9,3.4,2.8,5l0.2,0.2l0.3,0.6
				c2.7,4.8,5.6,9.5,8.8,13.9c5.4,6.6,11.4,12.6,17.9,18c2.1,1.5,4,2.8,6,4.1c0.1,0.1,0.2,0.1,0.3,0.2c2.3,1.5,4.6,2.9,7,4.1
				l0.1,0.1c0.2,0.1,0.5,0.3,0.7,0.4l0.1,0.1c2.3,1.3,4.9,2.5,7.5,3.8c8.5,3.3,17.4,5.8,26.5,7.3c4.5,0.5,9,0.7,13.4,0.7
				c1.1,0,2.3,0,3.4,0l0.2,0c1,0,2,0,3,0c0.6,0,1.3,0,1.9,0l3.5-0.5l0-0.1c6.7-1.2,13.3-3,19.7-5.4c5.7-2.6,11.2-5.8,16.2-9.3
				c3.7-3.1,7.2-6.5,10.2-10.1c2-2.9,3.8-6,5.3-9c1-2.8,1.8-5.7,2.4-8.7c0.2-3.2,0.2-6.5,0-9.8c-0.8-4.2-2-8.5-3.6-12.7
				c-2.9-6-6.5-12.1-10.8-18c-2.8-3.4-5.8-6.9-9.1-10.2c-6.1-6.2-12.8-12-19.4-17.6l-1.6-1.4c-6.4-5.4-13.2-11.2-22.1-18.5
				c-11.9-9.9-24-19.8-35.7-29.5l-2.8-2.3c-3.6-2.9-7.3-6-10.6-9.5c-4.7-4.9-9.3-10.6-14.5-17.9c-5.8-8.2-9.7-17-13-25.2
				c-3.7-9-5.8-19.5-6.5-31.4c-0.4-7.4,0.6-14.6,1.6-20.9c0.8-5.1,2-10.1,3.8-14.9c3.1-8.4,6.3-15.4,9.9-21.4
				c4-6.6,8.9-13.3,15.6-21.1c7.4-8.6,16.8-16.8,28-24.3c8.4-5.6,18-10.4,31.1-15.4c6.7-2.6,13.8-4.7,21.2-6.3
				c0.4-0.1,0.9-0.2,1.4-0.3c0.2,0,0.5-0.1,0.7-0.1c1-0.2,2-0.4,3-0.6c0,0,0.4-0.1,0.4-0.1c11.2-2.1,22.5-3.4,33.6-3.9
				c0.6,0,1.3-0.1,2-0.1c0.9,0,1.8-0.1,2.8-0.1c2.1-0.1,4.2-0.1,6.4-0.1c2.9,0,6,0.1,9,0.2l1,0c0.7,0,1.3,0.1,2,0.1l1.7,0.1
				c6.3,0.4,12.9,0.9,19.6,1.7c1,0.1,1.9,0.2,2.9,0.4l0.4,0.1l2.2,0.3l0.1,0c6.3,1.4,11.7,2.3,16.5,2.7c2.1,0.2,4.1,0.3,6,0.3
				c19.4,0,28.1-9.5,28.3-30.7l8,0V99l-8,0.3c-2.2-26.2-10.6-41.2-25.7-45.7c-2.1-0.6-4.4-1.1-6.8-1.3l-0.3,0l-0.3-0.1
				c-16.5-4.6-33.5-7-50.7-7.1l-0.1,0c-2.1-0.1-4.2-0.1-6.3-0.1c-8.1,0-16,0.4-23.5,1.3c-8.4,1.3-16.5,3.2-24,5.7l-0.6,0.3l-0.3,0
				c-2.1,0.7-4.1,1.4-6,2.1c-6.5,3-12.7,6.6-18.3,10.6c-5.1,4.2-9.9,9.1-14.3,14.5c-3.2,4.4-5.9,9-8.1,13.6
				c-1.2,3.4-2.2,6.9-2.9,10.3c-0.2,3-0.2,6.1,0,9.1c0.7,3.5,1.7,7.1,3,10.6c2.2,4.5,4.8,9,7.9,13.3c0.7,0.8,1.4,1.6,2.1,2.4
				c2.8,3.2,5.8,6.1,8.8,8.6c5.4,4.5,10.8,8.9,16.1,13.3c3.8,3.1,7.5,6.2,11.3,9.3c12.7,10.5,26.3,21.8,39.8,33.3
				c6.7,5.8,13.7,11.8,20.2,18.5c9.9,10.4,18.1,21.1,24.4,31.9c3.4,5.8,6.4,12.3,9.8,21c2.1,5.3,3.6,10.7,4.5,15.9
				c1.2,6.9,2.5,15,2.1,23.3c-0.2,4.7-0.9,9.4-1.6,13.9l-0.1,0.8c-0.4,2.5-0.9,5-1.5,7.4c-1.6,6-4,12.3-7.7,19.8
				c-2.1,4.3-4.7,8.4-7.7,12.4c-4.3,5.7-8.6,11.2-13.7,16.1c-4.5,4.3-9.8,8.5-16.6,13.4c-8.9,6.3-19.2,11.5-32.6,16.3
				c-8.9,3.2-18.7,5.4-30.1,6.7c-5.9,0.6-11.8,0.9-17.6,0.9c-4.8,0-9.7-0.2-14.4-0.6h-0.2l-0.2,0c-4.7-0.5-9.6-1.2-15.1-2.1
				l-0.3-0.1c-6-1.1-11.9-2.6-17.7-4.4c-0.3-0.1-0.6-0.2-0.9-0.3l-0.2-0.1l-0.1,0c-1.6-0.6-3.1-1.1-4.5-1.6l-0.6-0.2l0,0
				c-6.5-1.9-13.4-2.8-20.5-2.8c-6.6,0-13.1,0.8-19.2,2.5c-16.2,4.4-28.6,17.8-31.5,34.3l-4.6,26.8L-3865.5,446.2z"/>
			<path class="st5" d="M-3560.4-42.8V99c-2.1-25.3-10-43.6-28.6-49.2c-2.4-0.7-4.9-1.2-7.6-1.5c-17-4.8-34.3-7.2-51.8-7.2
				c-2.1-0.1-4.3-0.1-6.4-0.1c-8,0-16.1,0.4-24.1,1.3c-8.5,1.3-16.8,3.2-24.9,5.9c0,0,0,0,0,0c-2.3,0.8-4.6,1.6-6.9,2.5
				c1.2-0.5,2.3-1,3.5-1.5c-2.2,0.9-4.4,1.8-6.6,2.8c1-0.4,2-0.8,3.1-1.2c-6.7,3.1-13.1,6.8-19.1,11c0.9-0.8,1.8-1.5,2.8-2.2
				c-1.9,1.4-3.7,2.9-5.6,4.3c0.9-0.7,1.8-1.4,2.8-2.1c-5.5,4.6-10.5,9.7-15,15.2c0.7-1,1.4-1.9,2.2-2.9c-1.4,1.9-2.9,3.7-4.3,5.6
				c0.7-0.9,1.4-1.8,2.1-2.7c-3.3,4.6-6.2,9.4-8.6,14.4c0.4-1,0.8-2,1.2-3c-0.9,2.2-1.9,4.4-2.8,6.6c0.5-1.2,1-2.3,1.6-3.5
				c-1.4,3.7-2.4,7.5-3.2,11.4c0.1-1.2,0.2-2.4,0.4-3.6c-0.3,2.4-0.6,4.9-1,7.3c0.2-1.2,0.4-2.5,0.6-3.7c-0.2,3.4-0.2,6.8,0,10.2
				c-0.2-1.2-0.4-2.4-0.6-3.6c0.3,2.3,0.6,4.7,0.9,7c0,0.1,0,0.2,0,0.3c0-0.1,0-0.2,0-0.3c-0.1-1.1-0.3-2.3-0.3-3.4
				c0.8,3.9,1.9,7.8,3.3,11.6c-0.6-1.2-1.1-2.3-1.6-3.5c0.9,2.1,1.8,4.3,2.7,6.4c0,0,0,0.1,0.1,0.1c0,0,0-0.1-0.1-0.1
				c-0.4-1-0.8-2-1.1-3c2.4,5,5.2,9.7,8.4,14.1c-0.7-0.8-1.3-1.6-2-2.4c-0.1-0.1-0.2-0.3-0.3-0.4c0.1,0.1,0.2,0.3,0.3,0.4
				c1.3,1.7,2.6,3.4,4,5.1c-0.7-0.9-1.4-1.8-2-2.7c0.7,0.9,1.5,1.8,2.2,2.6c2.9,3.2,5.9,6.2,9.2,9c9.1,7.6,18.3,15,27.4,22.6
				c13.3,11,26.6,22,39.7,33.2c6.8,5.9,13.7,11.7,19.9,18.2c9,9.4,17.3,19.9,23.8,31.1c3.8,6.5,6.8,13.5,9.5,20.5
				c1.9,4.9,3.4,10,4.3,15.2c1.3,7.4,2.4,15,2.1,22.5c-0.2,4.8-0.9,9.6-1.6,14.3c-0.3,2.4-0.8,4.7-1.4,7c-1.7,6.6-4.5,13-7.4,19
				c-2,4.1-4.5,8-7.3,11.7c-4.2,5.5-8.3,10.9-13.3,15.6c-5,4.8-10.5,9-16.1,13c-9.7,6.9-20.6,11.8-31.7,15.9
				c-9.4,3.4-19.3,5.4-29.2,6.5c-5.8,0.6-11.5,0.9-17.1,0.9c-4.8,0-9.5-0.2-14.3-0.6c0,0-0.1,0-0.1,0c-5-0.5-10-1.2-15-2.1
				c-0.1,0-0.2,0-0.3-0.1c-5.8-1.1-11.5-2.5-17.2-4.3c-0.3-0.1-0.5-0.2-0.8-0.2c-0.1,0-0.1,0-0.2-0.1c-1.6-0.6-3.2-1.2-4.8-1.6
				c0,0-0.1,0-0.1,0c-6.8-2-14.3-3.1-22.2-3.1c-7.1,0-13.9,0.9-20.2,2.6c-17.7,4.8-31.2,19.4-34.4,37.5c0,0.1,0,0.1,0,0.2
				c-0.1-1-0.2-2.1-0.2-3.2V224.3l15.9,35.5l19,42.4c1,1.9,2.1,3.9,3.2,5.7c0,0,0,0,0,0.1c2.8,5,5.9,9.9,9.2,14.5
				c-0.7-0.9-1.4-1.7-2.1-2.6c1.3,1.7,2.6,3.3,3.8,5c0.2,0.2,0.3,0.4,0.5,0.6c-0.2-0.2-0.3-0.4-0.5-0.6c-0.6-0.8-1.2-1.6-1.8-2.4
				c5.6,6.8,11.8,13.1,18.6,18.7c-0.9-0.7-1.8-1.3-2.7-2c-0.1-0.1-0.3-0.2-0.4-0.3c0.1,0.1,0.3,0.2,0.4,0.3c1.7,1.3,3.4,2.6,5,3.9
				c0,0,0.1,0.1,0.1,0.1c0,0-0.1-0.1-0.1-0.1c-0.8-0.6-1.6-1.3-2.4-1.9c2.1,1.5,4.1,2.9,6.3,4.3c0.1,0,0.1,0.1,0.2,0.1
				c2.4,1.6,4.8,3,7.4,4.4c0.3,0.2,0.6,0.3,0.9,0.5c2.6,1.4,5.2,2.7,7.9,3.9c-1.1-0.4-2.2-0.9-3.3-1.3c2.2,0.9,4.4,1.8,6.6,2.8
				c-1.1-0.5-2.2-1-3.3-1.5c8.9,3.5,18.1,6,27.6,7.6c-1.3-0.1-2.6-0.3-3.8-0.5c2.4,0.3,4.9,0.7,7.3,1c-1.1-0.2-2.3-0.3-3.5-0.5
				c4.6,0.5,9.3,0.7,13.9,0.7c1.2,0,2.3,0,3.5,0c1,0,2,0,3.1,0c0.7,0,1.5,0,2.2,0c2.4-0.3,4.9-0.6,7.3-1c-1.1,0.1-2.3,0.3-3.4,0.4
				c7-1.2,13.9-3.1,20.6-5.7c-1.1,0.5-2.1,1-3.2,1.4c2.2-0.9,4.4-1.8,6.6-2.8c-1.1,0.5-2.2,0.9-3.4,1.3c6-2.8,11.7-6,17.1-9.9
				c-0.9,0.8-1.8,1.5-2.8,2.2c1.9-1.4,3.7-2.9,5.6-4.3c-0.9,0.7-1.9,1.4-2.8,2.1c4-3.3,7.6-6.9,11-10.8c-0.6,0.9-1.3,1.8-1.9,2.7
				c0,0.1-0.1,0.1-0.1,0.2c0-0.1,0.1-0.1,0.1-0.2c1.4-1.8,2.8-3.6,4.2-5.4c-0.7,0.9-1.5,1.9-2.2,2.8c2.2-3.1,4.2-6.5,5.8-9.9
				c-0.4,1.1-0.8,2.2-1.3,3.3c0.9-2.2,1.9-4.4,2.8-6.6c-0.5,1.1-1,2.2-1.5,3.2c1.1-3.2,2.1-6.4,2.7-9.7c-0.1,1.3-0.2,2.5-0.4,3.8
				c0.3-2.4,0.7-4.9,1-7.3c-0.2,1.2-0.4,2.4-0.6,3.5c0.3-3.6,0.2-7.3,0-10.9c0.2,1.2,0.4,2.5,0.6,3.7c-0.3-2.4-0.6-4.9-1-7.3
				c0.1,1.2,0.3,2.4,0.4,3.6c-0.9-4.7-2.2-9.3-3.9-13.8c0.4,0.9,0.9,1.9,1.3,2.8c0.1,0.3,0.2,0.5,0.3,0.8c-0.1-0.3-0.2-0.5-0.3-0.8
				c-0.8-1.9-1.6-3.8-2.4-5.8c0.4,1,0.8,2,1.2,2.9c-3.1-6.7-7-13-11.3-18.9c0.6,0.8,1.3,1.5,1.9,2.3c0.1,0.1,0.2,0.3,0.3,0.4
				c-0.1-0.1-0.2-0.3-0.3-0.4c-1.3-1.7-2.6-3.4-4-5.1c0.7,0.9,1.4,1.9,2.1,2.8c-3-3.7-6.1-7.2-9.4-10.6c-6.7-6.8-14-13-21.3-19.2
				c-7.3-6.2-14.7-12.4-22.1-18.6c-12.6-10.5-25.2-20.9-37.9-31.3c-3.8-3.1-7.5-6.2-10.9-9.7c-5.2-5.4-9.8-11.4-14.1-17.5
				c-5.4-7.6-9.1-15.8-12.6-24.4c-3.9-9.5-5.6-19.9-6.2-30.1c-0.4-6.8,0.6-13.4,1.5-20.1c0.7-4.8,1.9-9.5,3.6-14.1
				c2.6-7.1,5.7-14.2,9.6-20.7c4.4-7.3,9.6-14.1,15.2-20.5c7.8-9.1,17.2-16.9,27.2-23.6c9.4-6.3,19.8-10.9,30.3-15
				c6.7-2.6,13.6-4.6,20.6-6.1c0.4-0.1,0.9-0.2,1.4-0.3c0.2-0.1,0.5-0.1,0.7-0.1c1-0.2,2-0.4,3-0.6c0.1,0,0.3-0.1,0.4-0.1
				c10.9-2,22-3.3,33.1-3.9c0.6,0,1.3-0.1,2-0.1c0.9,0,1.8-0.1,2.7-0.1c2.1-0.1,4.2-0.1,6.3-0.1c2.9,0,5.9,0.1,8.9,0.2
				c1,0,2,0.1,2.9,0.1c0.5,0,1.1,0.1,1.7,0.1c6.5,0.4,12.9,0.9,19.4,1.7c1,0.1,1.9,0.2,2.9,0.3c0.1,0,0.2,0,0.3,0
				c0.7,0.1,1.4,0.2,2.1,0.3c6,1.3,11.7,2.3,17.1,2.7c2.2,0.2,4.3,0.3,6.3,0.3C-3573.6-8.2-3560.7-16.6-3560.4-42.8 M-3568.4-42.9
				c-0.2,22.2-9.9,26.7-24.3,26.7c-1.8,0-3.7-0.1-5.7-0.3c-4.7-0.4-9.9-1.2-16-2.6l-0.3-0.1l-0.3,0c-0.4-0.1-0.7-0.1-1.1-0.2
				c-0.3,0-0.7-0.1-1-0.1l-0.2,0l-0.2,0l-0.1,0c-1-0.1-2-0.2-2.9-0.4c-6.8-0.8-13.4-1.4-19.8-1.7c-0.3,0-0.6,0-0.9,0
				c-0.3,0-0.5,0-0.8,0c-0.7,0-1.4-0.1-2.1-0.1l-1,0l0,0l0,0c-3.1-0.1-6.1-0.2-9.1-0.2c-2.2,0-4.4,0-6.5,0.1c-0.9,0-1.9,0.1-2.8,0.1
				c-0.7,0-1.4,0-2.1,0.1c-11.3,0.5-22.8,1.9-34.1,4l-0.1,0l0,0c-0.1,0-0.3,0-0.4,0.1c-1,0.2-2,0.4-3,0.6c-0.3,0-0.5,0.1-0.8,0.2
				c-0.5,0.1-1,0.2-1.5,0.3c-7.5,1.6-14.8,3.8-21.7,6.4c-13.5,5.1-23.3,10-31.9,15.8c-11.4,7.7-21.1,16.1-28.8,25
				c-6.8,7.9-11.9,14.8-16,21.6c-3.7,6.2-7.1,13.4-10.2,22.1c-1.8,5-3.2,10.3-4,15.7c-1,6.5-2,14-1.6,21.7c0.7,12.3,3,23.2,6.8,32.6
				c3.4,8.4,7.4,17.4,13.5,26c5.3,7.5,10.1,13.4,14.9,18.4c3.5,3.6,7.3,6.8,11,9.8l0.7,0.5l2.1,1.8c11.7,9.6,23.9,19.6,35.7,29.5
				c8.9,7.4,15.7,13.1,22,18.5l1.6,1.4c6.5,5.5,13.2,11.3,19.1,17.3c3.1,3.2,6.1,6.5,8.8,9.8c4.1,5.7,7.6,11.4,10.3,17.2
				c1.4,3.9,2.6,7.8,3.3,11.7c0.2,2.9,0.2,5.8,0,8.7c-0.5,2.6-1.2,5.1-2.1,7.6c-1.3,2.7-3,5.5-4.8,8.1c-2.8,3.3-6,6.5-9.5,9.4
				c-4.7,3.4-9.9,6.3-15.3,8.8c-6.1,2.3-12.4,4.1-18.8,5.2l0,0.1c-1,0.1-2.1,0.3-3.1,0.4c-0.5,0-1.1,0-1.6,0c-1,0-2,0-2.9,0l-0.2,0
				l-0.2,0c-1.1,0-2.2,0-3.3,0c-4.2,0-8.6-0.2-12.9-0.7c-8.7-1.5-17.3-3.8-25.5-7c-2.5-1.2-5-2.4-7.2-3.6l-0.1,0l-0.1,0
				c-0.2-0.1-0.4-0.2-0.6-0.3l-0.1-0.1l-0.1-0.1c-2.2-1.2-4.5-2.5-6.6-3.9c-0.1-0.1-0.2-0.1-0.3-0.2l0,0l-0.1,0
				c-1.9-1.2-3.7-2.5-5.7-3.9c-6.2-5.1-12-10.9-17.2-17.2c-3.1-4.2-5.9-8.7-8.5-13.4c-0.1-0.2-0.2-0.4-0.3-0.6
				c-1-1.7-1.9-3.4-2.8-5.1l-18.9-42.2l-15.9-35.5l-15.3-34.2v37.5v218.2c0,1.4,0.1,2.8,0.3,4.2l6.6,52.6l9.2-52.2l0-0.1l0-0.1
				c2.7-15,13.9-27.2,28.6-31.1c5.8-1.5,11.8-2.3,18.1-2.3c6.5,0,12.9,0.8,18.8,2.5l0,0l1.2,0.3c1.3,0.4,2.7,0.9,4.2,1.5l0.2,0.1
				l0.2,0.1l0.1,0c0.3,0.1,0.7,0.2,1,0.3c5.9,1.8,12,3.3,18,4.5l0.1,0l0.1,0l0.2,0l0,0l0,0c5.6,1,10.6,1.7,15.4,2.1
				c0.1,0,0.2,0,0.4,0c0,0,0,0,0.1,0l0.1,0h0c4.9,0.4,9.8,0.6,14.7,0.6c5.9,0,11.9-0.3,17.9-0.9l0.1,0l0.1,0
				c11.7-1.3,21.8-3.6,31-6.9c13.7-5,24.4-10.3,33.6-16.8c7-4.9,12.4-9.3,17-13.7c5.3-5.1,9.7-10.7,14.1-16.6
				c3.1-4.1,5.8-8.5,8.1-13c3.8-7.7,6.4-14.2,8-20.5c0.7-2.6,1.2-5.2,1.6-7.9l0.1-0.8c0.7-4.6,1.4-9.4,1.6-14.4
				c0.4-8.7-0.9-17.1-2.2-24.2c-1-5.5-2.6-11.1-4.7-16.7c-3.5-8.9-6.6-15.6-10.1-21.6c-6.4-11-14.8-22-24.9-32.7
				c-6.6-6.9-14-13.2-20.5-18.8c-13.5-11.6-27.1-22.8-39.8-33.3c-3.8-3.1-7.6-6.2-11.3-9.3c-5.3-4.3-10.7-8.8-16.1-13.3
				c-2.9-2.4-5.7-5.1-8.4-8.1c-0.7-0.8-1.3-1.5-1.9-2.2c-2.9-4-5.3-8.2-7.4-12.4c-1.1-3.1-2.1-6.4-2.7-9.6c-0.2-2.7-0.2-5.4,0-8
				c0.6-3.1,1.5-6.2,2.6-9.3c2.1-4.3,4.6-8.5,7.6-12.7c4.2-5.1,8.7-9.7,13.6-13.7c5.3-3.8,11.2-7.2,17.4-10c1.6-0.6,3.2-1.2,5-1.8
				h0.6l1.2-0.6c7.2-2.3,14.9-4.2,23-5.4c7.4-0.8,15.1-1.3,23-1.3c2,0,4.1,0,6.2,0.1l0.1,0l0.1,0c16.8,0,33.5,2.4,49.6,6.9l0.7,0.2
				l0.7,0.1c2.2,0.2,4.2,0.6,6.1,1.2c8.6,2.6,20.2,9.7,22.9,42.2l16-0.7V-42.8L-3568.4-42.9L-3568.4-42.9z"/>
		</g>
	</g>
	<path class="st6" d="M-3779.8,410.2c-1.6-0.5-3.2-1.1-4.8-1.7C-3783,409.1-3781.4,409.6-3779.8,410.2z"/>
</g>
<rect x="-1423.2" class="st3" width="1080" height="1080"/>
<pattern  id="SVGID_2_" xlink:href="#New_Pattern_Swatch_2" patternTransform="matrix(1.5254 0 0 1.5254 1973.3463 4267.2808)"  class="st3">
</pattern>
<text transform="matrix(1 0 0 1 -1112.3286 946.9442)" style="display:none;fill:url(#SVGID_2_); font-family:'EdwardianScriptITC'; font-size:242.5818px;"><pattern  id="SVGID_3_" xlink:href="#New_Pattern_Swatch_2" patternTransform="matrix(1.5254 0 0 1.5254 1973.3463 4267.2808)">
</pattern>
Florist</text>
<g class="st3">
	<pattern  id="SVGID_4_" xlink:href="#New_Pattern_Swatch_2" patternTransform="matrix(1.3885 0 0 1.3885 1450.2064 2358.5518)">
	</pattern>
	<path style="display:inline;fill:url(#SVGID_4_);" d="M-904.3,400.8c-0.3-0.7-0.6-1.5-0.8-2.3
		C-904.6,399.8-904.3,400.6-904.3,400.8z"/>
	<g class="st4">
		<pattern  id="SVGID_5_" xlink:href="#New_Pattern_Swatch_2" patternTransform="matrix(1.127 0 0 1.127 683.4927 742.1593)">
		</pattern>
		<path style="fill:url(#SVGID_5_);" d="M-1048.8,383.4v36.4c2.3-4.1,3.4-6.3,3.6-6.7C-1044.5,411.4-1037.5,393.2-1048.8,383.4z
			 M-1048.8,551.4v12.2c6.1,3.8,11,8.2,14.9,12.6C-1037.7,567.9-1042.7,559.3-1048.8,551.4z M-1048.9,581.4
			c-0.2,37.6-1.1,65-5.1,88.2c-5.6,32-64.6,82.2-114.3,5.3l-38.1,3.2c19.9,88.1,140.2,65.4,157,48.9c3.9-3.8,7.6-7.7,10.9-11.7
			c-2.9,2.9-5.2,4.8-5.5,5l-9.4,7.9l14.2-44.7c3.9-9.6,5.2-22.8,6.6-35.5c0.4-4.1,0.8-8.1,1.3-11.9
			C-1029.3,621.6-1032.9,597.3-1048.9,581.4z M-1008.4,571.3v-0.2c-0.2-16-7.3-34.1-13.1-46.4c-5.3-11.2-12.4-21.4-21.2-30.3
			c-2.1-2.1-4.1-4.1-6.1-6.1v43.2c28.7,24.2,34.3,73.5,34.7,76.3c1.2,9.4,0.1,24.9-1.7,39.4c0.7-2.4,1.4-4.9,2.2-7.6
			C-1005.9,610.7-1008.4,571.7-1008.4,571.3z"/>
	</g>
	<g class="st4">
		<pattern  id="SVGID_6_" xlink:href="#New_Pattern_Swatch_2" patternTransform="matrix(1.5694 0 0 1.5694 2242.3386 3848.3809)">
		</pattern>
		<path style="fill:url(#SVGID_6_);" d="M-667.2,629.5c-3.2,2.2-6.2,4-8.8,5.5c2.7,0.4,5.7,0.8,8.8,1c0-0.8,0-1.6,0-2.5
			C-667.1,632.1-667.1,630.8-667.2,629.5z M-668.8,651.4c-10.9-2.5-33.3-6.6-60.4-5.7h-0.2c0.3,3.2,0.4,6.4,0.4,9.8
			c0,43.5-32,76.9-84.4,76.9c-67.2,0-103.8-58.7-121.3-103.2c-12.8,1.3-16.9,8.4-17.1,8.8l-0.1,0.1l-4.7,7.6
			c4.9,32.2,12,68.6,17.2,86.6c24.1,1.1,49.6,7.8,51.2,8.2l34.4,9.2l-33.9,0.5c18.5,4.1,38.7,6.9,60.4,6.9
			c46.6,0,86.4-13.2,114.6-35.1c0.9-0.8,1.9-1.5,2.8-2.3c1.2-1,2.3-1.9,3.5-2.9c0.9-0.8,1.7-1.5,2.5-2.3c18.7-17.3,31-39,35.1-63.2
			C-668.7,651.4-668.7,651.4-668.8,651.4z M-940.3,613.4l-4,6.7c2.5,0.5,4.8,0.9,6.7,1.4C-938.6,618.7-939.5,616-940.3,613.4z
			 M-673.6,593.4c-0.7-0.1-1.4-0.2-2-0.4c-11.1-2.9-11.9-18.7-11.9-19.4v-0.3c0-0.1,0-0.6,0.2-1.4c0.1-0.9,0.4-1.8,0.6-2.7
			c-1.5-2.1-3.1-4.1-4.8-6.1c-0.2,0.1-0.4,0.2-0.6,0.3c-6.6,3.6-14,6.5-21.9,8.6c-8,2.1-16.4,2.9-24.9,2.9c-20.5,0-41.5-5-57.4-10
			c34.6,19,55.4,36,63.5,62c0.4,0,0.8,0.1,1.2,0.1c32.3,3.5,48-4.5,48.1-4.5l0.4-0.2c0.1,0,6.5-2.4,13.5-7.4c0.4-0.3,0.9-0.6,1.3-1
			C-669.5,606.7-671.2,599.8-673.6,593.4z M-737.5,526.5c3.3,5.4,5.8,12.2,7.2,20.3l1.9,10.3c8.3-1.4,16.2-3.8,23.8-7
			C-713.8,542-724.7,534.2-737.5,526.5z M-735.4,549.2c-0.1-0.1-7.7-8.3-23.5-9.6l-0.4,0l-0.3-0.1c-0.5-0.2-13.4-4.5-20.6-11.3
			l-2.2-2c-2.6,0.6-5.4,1.4-8.4,2.3c-0.5,0.2-11.9,3.5-28.7,1.4c-9.2-1.2-21.2-4.2-34.2-11.5c15.9,13.9,41,30,76.7,37.3
			c17.1,3.5,33.3,3.9,48.4,1.4L-735.4,549.2z M-900.9,472c-7.1-15.8-12-25.8-15.6-33.2c3.4,19.2,9.4,43.5,19.7,60.2
			c1.5,2.5,3,5.1,4.4,7.9c0.9,1.7,1.7,3.5,2.4,5.2c12.8,9.4,27.7,18.4,44.8,27.6C-863,525.4-887.4,501.9-900.9,472z"/>
	</g>
	<pattern  id="SVGID_7_" xlink:href="#New_Pattern_Swatch_2" patternTransform="matrix(1.5694 0 0 1.5694 2242.3386 3848.3809)">
	</pattern>
	<path style="display:inline;fill:url(#SVGID_7_);" d="M-644.3,750c0,0-28.8,15.3-50.4,0c-8.8-6.2-14.1-16.2-14.8-26.9
		c-0.1-1-0.1-2.1-0.2-3.2c-0.5-8.9-0.4-20.7,2.1-29.4c-0.1,0.8-1.6,13.1,1.3,26.5c2.9,13.1,10.2,27.2,27.5,32
		c35.4,9.9,49.1-27.4,49.1-27.4s13.2-41.6-29.8-70.8c0,0-3.1-1-8.7-2.3c-11.7-2.7-34-6.7-61.2-5.7c-0.1,0-0.2,0-0.3,0
		c-37.9,1.2-89.6-27.8-98.6-37.7c4.1,6,17.1,29.2-4,63.2c-24.6,39.7-26.9,31.6-26.9,31.6s9.5-6.5-0.5-33.7c0,0-18.4-23.9-18.4-35.7
		c0-11.8,4.6-32,18.4-41.1c0,0,21.7,28.3,15.6,57.1c0,0,21.2-29.3-10.4-63.3c-31.6-34-51.7-75.5-51.7-75.5l-5.7-14.4l-3.1-7.8
		c0,0,0,1.5-0.4,4.1c-1.4,8.6-7.8,28.7-36.9,40.3c-6.1,2.5-11.3,4.5-15.7,6.3c2.4-3.8,4.1-8.5,4.5-14.3c0.7-8.7,0.9-14.1,1-17.7
		c0.2-6.7,0.2-6.9,2.8-11.5c3.9-7,7.9-9.4,7.9-9.4l10.4-5.6H-953c-0.5,0-8.4,0.1-18.9,4.1c5.7-17.7,20.9-28.8,34-32.2
		c1.8-0.5,3.5-0.8,5.2-1c0,0,2.4,7.1,1.4,17.7c-1.2,12.4-7,29.6-26.9,45.6c0,0,26.4-4.2,33-35.2v0c1.1-5.1,1.6-11,1.4-17.7
		c0,0-8.6-48.4-8.8-62.5c-0.7,8.6-2.1,30.6,1.2,41.9c-2.1-6.1-7-21.5-8.9-38.2c2-10.6,5.8-20.9,11.2-30.5
		c12.2,37.3,65.2,179.7,151.3,139c0,0,1.3-0.8,3.3-2.3c5.5-4.3,16.1-14.8,17.2-31.5c1-15.3-8.8-29.5-23.7-32.7
		c-8.9-1.9-19.3,0.1-28.3,13.1c0,0-6,9.6-2.5,26.9c0,0-4.1-5.8-4-15.8c0.2-17.5,14.9-31.8,32.4-30.1c4.7,0.5,9.8,2,14.8,5.5
		c20.2,13.8,20.2,27.6,15.6,47.1c-2.6,11-7.7,18.3-11.7,22.5c-3,3.2-5.3,4.6-5.3,4.6s6.1-2,13.4-0.4c3.9,0.9,8.2,2.9,12.2,6.8
		c4.8,4.8,9,12.6,11.3,24.9c0,0-8.1-9.2-25.5-10.6c0,0-12.8-4.2-19.5-10.6c0,0,25.9-0.9,34.4,9.2c0,0-3.5-23.7-47.8-9.6
		c0,0-44.3,13.5-86.4-30.1c0,0,29.4,48.5,100.6,63c32.8,6.7,57.9,1.3,75.3-6.4c20.3-9,30.3-21.2,30.3-21.2s10.3-15.6-9.6-23.7
		c-13.2-5.4-14.6-16-14.1-22.5c0.4-4.8,3-9.3,7.4-11.5c4.2-2.1,10.6-2.5,19,4.6c16.8,14.2,10.1,42.5,10.1,42.5s-6,25-34.4,40.6
		c-6,3.3-13.1,6.2-21.2,8.3c-35.8,9.2-80.9-6.3-100.1-14h0c-5.9-2.4-9.3-4-9.3-4s-1.7-1-4.5-2.9c-13.1-8.9-51.5-37.6-69.5-77.5
		c-22-48.5-23.4-44.6-25.1-61.6c0,0,4.1,59.2,24,91.4c1.5,2.5,2.9,5,4.2,7.6c0.9,1.7,1.7,3.5,2.5,5.2c9.1,20.6,39,77.6,100.3,101.2
		c24.3,9.3,44.3,13.8,60.3,15.5c33.8,3.6,49.8-4.9,49.8-4.9s6.8-2.5,14.2-7.8c11.5-8.3,24.4-23.7,15.6-47.8c0,0-2.8-9.9-20.2-7.8
		c0,0-10.1,5.3-7.7,17.1c0.2,1.1,0.5,2.2,1,3.4c0,0,0.6,2.7,2.8,4c1.2,0.7,2.9,1,5.3,0.3c0,0-8.9-7.7-0.5-12.2
		c8.4-4.5,9.7,6.5,9.7,6.5s1.8,9.5-10,9.6c-1,0-2-0.1-2.8-0.3c-9.1-2.4-9.7-16.7-9.7-16.7s0-0.4,0.1-1c0.6-3.4,3.3-13.7,16.4-13.2
		c15.6,0.6,23.5,11.6,24.1,16.8c0.6,5.2,5.7,28-18.4,46.4c0,0-2,1.5-4.9,3.6c-5.6,3.9-14.6,9.7-20,10c0,0,9.6,2.1,20,3
		c7.4,0.6,15.3,0.6,20.6-1.3c12.8-4.5,26.4-17.2,26.4-21.1c0,0-13.8,17.9-40.1,16.9c0,0,1.9-10.2,30.7-19.9c0,0,20.9-11.8,22.5-16.5
		c0,0,0.9,31-18.2,44.9c0,0-7.1,5.7-28.1,4C-653.4,645.7-582,697.5-644.3,750z"/>
	<pattern  id="SVGID_8_" xlink:href="#New_Pattern_Swatch_2" patternTransform="matrix(2.8499 0 0 2.4733 6860.082 10156.4404)">
	</pattern>
	<path style="display:inline;fill:url(#SVGID_8_);" d="M-421.4,720l-219.9-290.9l-50.4-75.8l-28.2-42.3L-861.2,98.6l-20-30l-20,30
		l-139.6,209.8l-17,25.6l-26,39.1l-19.6,29.5l-17.1,25.7l-0.6,0.9l-5.8,8.6l-2.2,3.3l-3.3,4.9l-208.7,274l-24.8,37.3h969.1
		L-421.4,720z M-1105.3,448.8l2.6-4l1.6-2.3l0.8-1.2c0.4,0.3,0.9,0.6,1.3,0.9l15.5,12c0,0-14-1.6-26.4,1.5L-1105.3,448.8z
		 M-1321,733.3l190.2-246.2c0.1,0.3,0.3,0.6,0.5,0.9c0,0,6.7,10.2,18.6,6.5c0,0,7-3.9,5.7-12.7c-1.3-8.8-11.4-9.7-13.6-2.7
		c-2.2,7,5.1,7.4,5.1,7.4s5.1-0.4,3.6-8.1c0,0,5.7,4.3,1.7,10.4c-4,6.1-10.3,5.9-14.9,2.9c-2.2-1.4-4.1-4.1-4.9-7.2l14.4-21.7
		c6.3-3.2,15.1-5,27.3-3c15.7,2.6,34.7,19.5,47.1,32.1c8.9,9.2,16.3,19.7,21.8,31.3c6.2,13.1,13.2,31.4,13.5,47.9
		c0,0,2.7,39.7-5.4,69.4c-7.9,28.8-14.1,41.2-14.5,41.9c0.3-1.7,9.9-53.7,7.1-74.2c0,0-5.3-51.4-34.3-74.8
		c-29-23.4-46.8-35.1-74-28.5s-29,29.8-29,29.8s-2.8,19.8,11.7,18.2c7.7-0.8,10.3-5.4,11.1-9.5c0.6-3.3-0.1-6.7-1.7-9.6
		c-3-5.4-8.3-17.4,1.5-19.8c12.7-3.1,23.9-6.4,58,10.9c34.1,17.3,52.1,62.8,53.4,83.9c0,0-7.1-39.2-47.8-50.1c0,0-21.4-5.8-18-21.1
		c0,0,7.1,14.8,16.8,17.8c0,0-2.3-9.4-10.2-15c0,0-10-8.9-7.4-14.8c0,0-9.9,8.7-3.8,22.1c4.9,10.8,11,11.5,13.1,11.3
		c-3.3,0.6-15.6,3.4-24.6,13.5c-11.9,13.3-8.5,34.1,7.1,42.8c0.2,0.1,0.4,0.2,0.6,0.3c19.8,10.7,30.3-14.5,30.5-20.4
		c0,0-8.1,28-31,14.8c-10-5.8-11.7-13.9-10.3-21.3c3.2-17.6,21.3-28.4,38.4-23.2c3.7,1.1,7.6,2.9,11.9,5.6
		c25.9,16.3,30.3,49.3,28.2,65.1c-2,15.8-2.8,35.1-8.1,48.3l-10.4,32.8c0,0,10.7-9,15.5-17c0,0,17.3-26.8,22.7-47.5
		c0,0,11.2-27.5,42.7-20.7c0,0-36.3,6.4-39.7,31.5c0,0,26.1,8.8,39.7-9.5l10.8-17.8c0,0,5.5-10.3,23.4-10.5c0,0-39.2-10.4-56.5-3.6
		c0,0-10.6,3.2-14.1,10.4c0,0,4.7-45.6,4.2-57.6c-0.5-12.2-5.6-32-5.6-32s1.3-16.9,8.4-25.4c0,0,7.7-8.8,10.5-10.4
		c-0.4,0.6-13.3,20.9-11.7,42.3c0,0,27.3-3.2,29.4-28.1c2-24.9-0.3-22.4,4.2-30.4c4.5-8,9.2-10.6,9.2-10.6s-17.4,0-35.4,13.6
		c-17.9,13.6-19.8,17.5-20.1,32.8c0,0-14.8-32.9-29.9-46.4c-15.1-13.5-33.3-25.2-33.3-25.2s-15-9.6-22.8-23.1l37.9-57
		c1.5,0.5,3,1.1,4.6,1.8c21.4,10.2,9.9,37.2,9.9,37.2s-5.1,10.8-7.6,13.7c0.6-0.5,18.7-16.3,17.2-29.6c-1.3-11.6-6.8-23-21-27.7
		l4.4-6.6c0.1,1.5,0.1,3,0.1,4.6c11.4,5.1,18.4,15.2,20,29.3c1.7,15.2-17.6,32-18.4,32.7l-1.5,1.3v35.2c4.2,3.2,8.7,6.9,12.9,10.6
		c10,8.9,19.6,25.4,25.3,36.5c1.1-4,2.9-7.4,6.1-11V378.5c0-46.4,4.1-49.7,43.8-54.7v-15.5h-51.2l130.7-196.5l129,193.9
		c-12.6-1.6-26.3-2.8-40-2.8c-66.5,0-112.8,26.9-134.9,63.3l0.8,2.5c8.8,26.9,41.7,116.5,94,139c17.2,7.4,35,6.8,53.2-1.8
		c0.2-0.1,0.9-0.5,1.8-1.2c-4.8-2.4-9.7-4.8-14.8-7.2c-5.2-2.5-10.1-4.9-14.9-7.3c-1.3-0.6-2.5-1.3-3.8-1.9
		c-48.3-24.9-73.8-48-73.8-89.1c0-34.8,19.6-72.9,76.4-72.9c68.4,0,88.8,43.5,101.1,87.6l22.6-4c-0.1-1.1-0.3-2.2-0.4-3.3l23.7,35.6
		l219.9,290.9H-1321z"/>
</g>
<g>
	<pattern  id="SVGID_9_" xlink:href="#New_Pattern_Swatch_2" patternTransform="matrix(1.3885 0 0 1.3885 1737.1439 2485.5842)">
	</pattern>
	<path class="st14" d="M516.9,527.8c-0.3-0.7-0.6-1.5-0.8-2.3C516.5,526.8,516.8,527.6,516.9,527.8z"/>
	<g>
		<pattern  id="SVGID_10_" xlink:href="#New_Pattern_Swatch_2" patternTransform="matrix(1.127 0 0 1.127 723.7934 869.1918)">
		</pattern>
		<path class="st15" d="M372.3,510.4v36.4c2.3-4.1,3.4-6.3,3.6-6.7C376.6,538.4,383.7,520.2,372.3,510.4z M372.3,678.5v12.2
			c6.1,3.8,11,8.2,14.9,12.6C383.4,695,378.5,686.3,372.3,678.5z M372.3,708.4c-0.2,37.6-1.1,65-5.1,88.2
			c-5.6,32-64.6,82.2-114.3,5.3l-38.1,3.2c19.9,88.1,140.2,65.4,157,48.9c3.9-3.8,7.6-7.7,10.9-11.7c-2.9,2.9-5.2,4.8-5.5,5
			l-9.4,7.9l14.2-44.7c3.9-9.6,5.2-22.8,6.6-35.5c0.4-4.1,0.8-8.1,1.3-11.9C391.9,748.6,388.2,724.3,372.3,708.4z M412.7,698.3v-0.2
			c-0.2-16-7.3-34.1-13.1-46.4c-5.3-11.2-12.4-21.4-21.2-30.3c-2.1-2.1-4.1-4.1-6.1-6.1v43.2c28.7,24.2,34.3,73.5,34.7,76.3
			c1.2,9.4,0.1,24.9-1.7,39.4c0.7-2.4,1.4-4.9,2.2-7.6C415.3,737.7,412.8,698.7,412.7,698.3z"/>
	</g>
	<g>
		<pattern  id="SVGID_11_" xlink:href="#New_Pattern_Swatch_2" patternTransform="matrix(1.5694 0 0 1.5694 2381.5146 3975.4133)">
		</pattern>
		<path class="st16" d="M754,756.5c-3.2,2.2-6.2,4-8.8,5.5c2.7,0.4,5.7,0.8,8.8,1c0-0.8,0-1.6,0-2.5
			C754.1,759.2,754,757.8,754,756.5z M752.4,778.4c-10.9-2.5-33.3-6.6-60.4-5.7h-0.2c0.3,3.2,0.4,6.4,0.4,9.8
			c0,43.5-32,76.9-84.4,76.9c-67.2,0-103.8-58.7-121.3-103.2c-12.8,1.3-16.9,8.4-17.1,8.8l-0.1,0.1l-4.7,7.6
			c4.9,32.2,12,68.6,17.2,86.6c24.1,1.1,49.6,7.8,51.2,8.2l34.4,9.2l-33.9,0.5c18.5,4.1,38.7,6.9,60.4,6.9
			c46.6,0,86.4-13.2,114.6-35.1c0.9-0.8,1.9-1.5,2.8-2.3c1.2-1,2.3-1.9,3.5-2.9c0.9-0.8,1.7-1.5,2.5-2.3c18.7-17.3,31-39,35.1-63.2
			C752.5,778.5,752.4,778.4,752.4,778.4z M480.8,740.4l-4,6.7c2.5,0.5,4.8,0.9,6.7,1.4C482.6,745.7,481.7,743,480.8,740.4z
			 M747.6,720.4c-0.7-0.1-1.4-0.2-2-0.4c-11.1-2.9-11.9-18.7-11.9-19.4v-0.3c0-0.1,0-0.6,0.2-1.4c0.1-0.9,0.4-1.8,0.6-2.7
			c-1.5-2.1-3.1-4.1-4.8-6.1c-0.2,0.1-0.4,0.2-0.6,0.3c-6.6,3.6-14,6.5-21.9,8.6c-8,2.1-16.4,2.9-24.9,2.9c-20.5,0-41.5-5-57.4-10
			c34.6,19,55.4,36,63.5,62c0.4,0,0.8,0.1,1.2,0.1c32.3,3.5,48-4.5,48.1-4.5l0.4-0.2c0.1,0,6.5-2.4,13.5-7.4c0.4-0.3,0.9-0.6,1.3-1
			C751.7,733.7,750,726.9,747.6,720.4z M683.7,653.5c3.3,5.4,5.8,12.2,7.2,20.3l1.9,10.3c8.3-1.4,16.2-3.8,23.8-7
			C707.4,669,696.5,661.3,683.7,653.5z M685.8,676.3c-0.1-0.1-7.7-8.3-23.5-9.6l-0.4,0l-0.3-0.1c-0.5-0.2-13.4-4.5-20.6-11.3l-2.2-2
			c-2.6,0.6-5.4,1.4-8.4,2.3c-0.5,0.2-11.9,3.5-28.7,1.4c-9.2-1.2-21.2-4.2-34.2-11.5c15.9,13.9,41,30,76.7,37.3
			c17.1,3.5,33.3,3.9,48.4,1.4L685.8,676.3z M520.3,599c-7.1-15.8-12-25.8-15.6-33.2c3.4,19.2,9.4,43.5,19.7,60.2
			c1.5,2.5,3,5.1,4.4,7.9c0.9,1.7,1.7,3.5,2.4,5.2c12.8,9.4,27.7,18.4,44.8,27.6C558.2,652.4,533.8,628.9,520.3,599z"/>
	</g>
	<pattern  id="SVGID_12_" xlink:href="#New_Pattern_Swatch_2" patternTransform="matrix(1.5694 0 0 1.5694 2381.5146 3975.4133)">
	</pattern>
	<path style="fill:url(#SVGID_12_);" d="M776.9,877c0,0-28.8,15.3-50.4,0c-8.8-6.2-14.1-16.2-14.8-26.9c-0.1-1-0.1-2.1-0.2-3.2
		c-0.5-8.9-0.4-20.7,2.1-29.4c-0.1,0.8-1.6,13.1,1.3,26.5c2.9,13.1,10.2,27.2,27.5,32c35.4,9.9,49.1-27.4,49.1-27.4
		s13.2-41.6-29.8-70.8c0,0-3.1-1-8.7-2.3c-11.7-2.7-34-6.7-61.2-5.7c-0.1,0-0.2,0-0.3,0c-37.9,1.2-89.6-27.8-98.6-37.7
		c4.1,6,17.1,29.2-4,63.2C564.4,835,562,827,562,827s9.5-6.5-0.5-33.7c0,0-18.4-23.9-18.4-35.7c0-11.8,4.6-32,18.4-41.1
		c0,0,21.7,28.3,15.6,57.1c0,0,21.2-29.3-10.4-63.3c-31.6-34-51.7-75.5-51.7-75.5l-5.7-14.4l-3.1-7.8c0,0,0,1.5-0.4,4.1
		c-1.4,8.6-7.8,28.7-36.9,40.3c-6.1,2.5-11.3,4.5-15.7,6.3c2.4-3.8,4.1-8.5,4.5-14.3c0.7-8.7,0.9-14.1,1-17.7
		c0.2-6.7,0.2-6.9,2.8-11.5c3.9-7,7.9-9.4,7.9-9.4l10.4-5.6h-11.9c-0.5,0-8.4,0.1-18.9,4.1c5.7-17.7,20.9-28.8,34-32.2
		c1.8-0.5,3.5-0.8,5.2-1c0,0,2.4,7.1,1.4,17.7c-1.2,12.4-7,29.6-26.9,45.6c0,0,26.4-4.2,33-35.2v0c1.1-5.1,1.6-11,1.4-17.7
		c0,0-8.6-48.4-8.8-62.5c-0.7,8.6-2.1,30.6,1.2,41.9c-2.1-6.1-7-21.5-8.9-38.2c2-10.6,5.8-20.9,11.2-30.5
		c12.2,37.3,65.2,179.7,151.3,139c0,0,1.3-0.8,3.3-2.3c5.5-4.3,16.1-14.8,17.2-31.5c1-15.3-8.8-29.5-23.7-32.7
		c-8.9-1.9-19.3,0.1-28.3,13.1c0,0-6,9.6-2.5,26.9c0,0-4.1-5.8-4-15.8c0.2-17.5,14.9-31.8,32.4-30.1c4.7,0.5,9.8,2,14.8,5.5
		c20.2,13.8,20.2,27.6,15.6,47.1c-2.6,11-7.7,18.3-11.7,22.5c-3,3.2-5.3,4.6-5.3,4.6s6.1-2,13.4-0.4c3.9,0.9,8.2,2.9,12.2,6.8
		c4.8,4.8,9,12.6,11.3,24.9c0,0-8.1-9.2-25.5-10.6c0,0-12.8-4.2-19.5-10.6c0,0,25.9-0.9,34.4,9.2c0,0-3.5-23.7-47.8-9.6
		c0,0-44.3,13.5-86.4-30.1c0,0,29.4,48.5,100.6,63c32.8,6.7,57.9,1.3,75.3-6.4c20.3-9,30.3-21.2,30.3-21.2s10.3-15.6-9.6-23.7
		c-13.2-5.4-14.6-16-14.1-22.5c0.4-4.8,3-9.3,7.4-11.5c4.2-2.1,10.6-2.5,19,4.6c16.8,14.2,10.1,42.5,10.1,42.5s-6,25-34.4,40.6
		c-6,3.3-13.1,6.2-21.2,8.3c-35.8,9.2-80.9-6.3-100.1-14h0c-5.9-2.4-9.3-4-9.3-4s-1.7-1-4.5-2.9c-13.1-8.9-51.5-37.6-69.5-77.5
		c-22-48.5-23.4-44.6-25.1-61.6c0,0,4.1,59.2,24,91.4c1.5,2.5,2.9,5,4.2,7.6c0.9,1.7,1.7,3.5,2.5,5.2c9.1,20.6,39,77.6,100.3,101.2
		c24.3,9.3,44.3,13.8,60.3,15.5c33.8,3.6,49.8-4.9,49.8-4.9s6.8-2.5,14.2-7.8c11.5-8.3,24.4-23.7,15.6-47.8c0,0-2.8-9.9-20.2-7.8
		c0,0-10.1,5.3-7.7,17.1c0.2,1.1,0.5,2.2,1,3.4c0,0,0.6,2.7,2.8,4c1.2,0.7,2.9,1,5.3,0.3c0,0-8.9-7.7-0.5-12.2
		c8.4-4.5,9.7,6.5,9.7,6.5s1.8,9.5-10,9.6c-1,0-2-0.1-2.8-0.3c-9.1-2.4-9.7-16.7-9.7-16.7s0-0.4,0.1-1c0.6-3.4,3.3-13.7,16.4-13.2
		c15.6,0.6,23.5,11.6,24.1,16.8c0.6,5.2,5.7,28-18.4,46.4c0,0-2,1.5-4.9,3.6c-5.6,3.9-14.6,9.7-20,10c0,0,9.6,2.1,20,3
		c7.4,0.6,15.3,0.6,20.6-1.3c12.8-4.5,26.4-17.2,26.4-21.1c0,0-13.8,17.9-40.1,16.9c0,0,1.9-10.2,30.7-19.9c0,0,20.9-11.8,22.5-16.5
		c0,0,0.9,31-18.2,44.9c0,0-7.1,5.7-28.1,4C767.8,772.8,839.2,824.6,776.9,877z"/>
	<pattern  id="SVGID_13_" xlink:href="#New_Pattern_Swatch_2" patternTransform="matrix(2.8499 0 0 2.4733 7117.27 10283.4727)">
	</pattern>
	<path style="fill:url(#SVGID_13_);" d="M999.8,847.1L779.9,556.2l-50.4-75.8l-28.2-42.3L560,225.7l-20-30l-20,30L380.5,435.5
		l-17,25.6l-26,39.1l-19.6,29.5l-17.1,25.7l-0.6,0.9l-5.8,8.6l-2.2,3.3l-3.3,4.9l-208.7,274l-24.8,37.3h969.1L999.8,847.1z
		 M315.9,575.8l2.6-4l1.6-2.3l0.8-1.2c0.4,0.3,0.9,0.6,1.3,0.9l15.5,12c0,0-14-1.6-26.4,1.5L315.9,575.8z M100.2,860.3l190.2-246.2
		c0.1,0.3,0.3,0.6,0.5,0.9c0,0,6.7,10.2,18.6,6.5c0,0,7-3.9,5.7-12.7c-1.3-8.8-11.4-9.7-13.6-2.7c-2.2,7,5.1,7.4,5.1,7.4
		s5.1-0.4,3.6-8.1c0,0,5.7,4.3,1.7,10.4c-4,6.1-10.3,5.9-14.9,2.9c-2.2-1.4-4.1-4.1-4.9-7.2l14.4-21.7c6.3-3.2,15.1-5,27.3-3
		c15.7,2.6,34.7,19.5,47.1,32.1c8.9,9.2,16.3,19.7,21.8,31.3c6.2,13.1,13.2,31.4,13.5,47.9c0,0,2.7,39.7-5.4,69.4
		c-7.9,28.8-14.1,41.2-14.5,41.9c0.3-1.7,9.9-53.7,7.1-74.2c0,0-5.3-51.4-34.3-74.8c-29-23.4-46.8-35.1-74-28.5s-29,29.8-29,29.8
		s-2.8,19.8,11.7,18.2c7.7-0.8,10.3-5.4,11.1-9.5c0.6-3.3-0.1-6.7-1.7-9.6c-3-5.4-8.3-17.4,1.5-19.8c12.7-3.1,23.9-6.4,58,10.9
		c34.1,17.3,52.1,62.8,53.4,83.9c0,0-7.1-39.2-47.8-50.1c0,0-21.4-5.8-18-21.1c0,0,7.1,14.8,16.8,17.8c0,0-2.3-9.4-10.2-15
		c0,0-10-8.9-7.4-14.8c0,0-9.9,8.7-3.8,22.1c4.9,10.8,11,11.5,13.1,11.3c-3.3,0.6-15.6,3.4-24.6,13.5c-11.9,13.3-8.5,34.1,7.1,42.8
		c0.2,0.1,0.4,0.2,0.6,0.3c19.8,10.7,30.3-14.5,30.5-20.4c0,0-8.1,28-31,14.8c-10-5.8-11.7-13.9-10.3-21.3
		c3.2-17.6,21.3-28.4,38.4-23.2c3.7,1.1,7.6,2.9,11.9,5.6c25.9,16.3,30.3,49.3,28.2,65.1c-2,15.8-2.8,35.1-8.1,48.3L375,844.6
		c0,0,10.7-9,15.5-17c0,0,17.3-26.8,22.7-47.5c0,0,11.2-27.5,42.7-20.7c0,0-36.3,6.4-39.7,31.5c0,0,26.1,8.8,39.7-9.5l10.8-17.8
		c0,0,5.5-10.3,23.4-10.5c0,0-39.2-10.4-56.5-3.6c0,0-10.6,3.2-14.1,10.4c0,0,4.7-45.6,4.2-57.6c-0.5-12.2-5.6-32-5.6-32
		s1.3-16.9,8.4-25.4c0,0,7.7-8.8,10.5-10.4c-0.4,0.6-13.3,20.9-11.7,42.3c0,0,27.3-3.2,29.4-28.1c2-24.9-0.3-22.4,4.2-30.4
		c4.5-8,9.2-10.6,9.2-10.6s-17.4,0-35.4,13.6C414.9,635,413,639,412.7,654.2c0,0-14.8-32.9-29.9-46.4
		c-15.1-13.5-33.3-25.2-33.3-25.2s-15-9.6-22.8-23.1l37.9-57c1.5,0.5,3,1.1,4.6,1.8c21.4,10.2,9.9,37.2,9.9,37.2s-5.1,10.8-7.6,13.7
		c0.6-0.5,18.7-16.3,17.2-29.6c-1.3-11.6-6.8-23-21-27.7l4.4-6.6c0.1,1.5,0.1,3,0.1,4.6c11.4,5.1,18.4,15.2,20,29.3
		c1.7,15.2-17.6,32-18.4,32.7l-1.5,1.3v35.2c4.2,3.2,8.7,6.9,12.9,10.6c10,8.9,19.6,25.4,25.3,36.5c1.1-4,2.9-7.4,6.1-11V505.6
		c0-46.4,4.1-49.7,43.8-54.7v-15.5h-51.2L540,239l129,193.9c-12.6-1.6-26.3-2.8-40-2.8c-66.5,0-112.8,26.9-134.9,63.3l0.8,2.5
		c8.8,26.9,41.7,116.5,94,139c17.2,7.4,35,6.8,53.2-1.8c0.2-0.1,0.9-0.5,1.8-1.2c-4.8-2.4-9.7-4.8-14.8-7.2
		c-5.2-2.5-10.1-4.9-14.9-7.3c-1.3-0.6-2.5-1.3-3.8-1.9c-48.3-24.9-73.8-48-73.8-89.1c0-34.8,19.6-72.9,76.4-72.9
		c68.4,0,88.8,43.5,101.1,87.6l22.6-4c-0.1-1.1-0.3-2.2-0.4-3.3l23.7,35.6l219.9,290.9H100.2z"/>
</g>
</svg>
